<svg xmlns="http://www.w3.org/2000/svg" width="131" height="199.714" viewBox="0 0 131 199.714">
  <g id="Grupo_17" data-name="Grupo 17" transform="translate(0.344 6.714)">
    <g id="body_Paper" data-name="body/Paper" transform="translate(-0.344 76)">
      <path id="_Background" data-name="ðŸŽ¨ Background" d="M107.507,36.376c-1.393-5.4-2.675-7.694-5.15-9.572-2.315-1.756-5.694-3.232-10.625-4.309-5.136-.9-5.281-3.567-6.569-7.856a1.861,1.861,0,0,0-3.041-.7,3.689,3.689,0,0,0-.354-.335c.109-.615-.786-2.378-.756-2.966.312-6.14-1.7-9.224-6.71-10.37a56.214,56.214,0,0,0-9.56-.1C60.1,1.448,55.52,5.527,56.22,10.441a9.1,9.1,0,0,1-5.138,3.684q-7.514.954-15.028,1.685a41.586,41.586,0,0,0-25.288,14.3,1.97,1.97,0,0,0-.236,2.392c-.4,1.716-2.657,5.879-.882,7.056C6.73,46.536.014,60.027,0,63.881c-.053,16.192,1.7,37.268,17.678,46.229a4.554,4.554,0,0,1,1.008,2.261,6.08,6.08,0,0,0,6.047,4.883c13.758.306,27.084-1.372,40.842-1.454a166.4,166.4,0,0,1,18.635,1.473,38.6,38.6,0,0,0,15.65-1.473,2.051,2.051,0,0,0,2.164.87c5.244-1.042,9.484-4.272,13.177-7.8,1.129-2.053,5.536-7.9,3.784-9.937,1.588-6.712,1.506-13.925-1.317-20.317.4-1.172-.329-2.459,0-3.669.238-.876.848-1.238,1.155-2.1a6.445,6.445,0,0,0-.524-4.1c-.2-.621.367-1.288.524-1.922.746-2.986-.963-2.723-2.195-4.72.018-.006.339-1.431.337-1.424a5.755,5.755,0,0,0-.7-3.171,1.5,1.5,0,0,0-1.468-.868,54.019,54.019,0,0,1,2.165-5.667,59.326,59.326,0,0,1,5.317-9.855,1.907,1.907,0,0,0-1.657-2.841A83.536,83.536,0,0,1,107.507,36.376Z" transform="translate(6.002 -4.955)" fill="#fff"/>
      <path id="_Ink" data-name="ðŸ– Ink" d="M97.15,112.46h0a35.536,35.536,0,0,1-3.659-.194c-1.372-.142-2.762-.328-4.106-.507h0c-1.554-.208-3.161-.422-4.75-.571-1.635-.154-3.342-.276-5.219-.373.122-.245.25-.491.373-.729v0c.095-.183.193-.373.288-.561a.621.621,0,0,0-.019-.626.725.725,0,0,0-.592-.343.541.541,0,0,0-.494.324c-.1.2-.207.4-.309.6-.214.414-.435.841-.637,1.269-2.447-.1-5.035-.154-7.914-.154-4.219,0-8.507.11-12.653.217-1.725.044-3.509.09-5.275.128-1.713.036-3.454.067-5.138.1h-.028c-3.743.067-7.614.137-11.421.263-1.58.052-3.189.117-4.744.179h-.013c-1,.04-2.035.082-3.052.119-.149-.474-.314-.951-.473-1.412-.065-.187-.138-.4-.207-.6a.627.627,0,0,0-.617-.441.687.687,0,0,0-.556.265.545.545,0,0,0-.059.515c.071.208.143.418.213.621v0c.124.36.253.732.373,1.1-2.724.092-4.819.133-6.8.133h-.5a.623.623,0,0,1-.2-.03l-.012.077,0,.03-.007.043a.019.019,0,0,1-.02.016.025.025,0,0,1-.016-.006.021.021,0,0,1-.007-.017c0-.054,0-.11,0-.168a.71.71,0,0,1-.408-.459,4.817,4.817,0,0,1-.077-2,2.568,2.568,0,0,0-.659-.9,5.759,5.759,0,0,0-1.883-.9,9.31,9.31,0,0,1-1.239-.486,14.69,14.69,0,0,1-2.177-1.37,18.368,18.368,0,0,1-3.677-3.763,26.55,26.55,0,0,1-1.616-2.441c-.476-.811-.935-1.685-1.363-2.6a45.013,45.013,0,0,1-2.114-5.469c-.589-1.841-1.116-3.779-1.566-5.758-.432-1.9-.8-3.886-1.1-5.9a96.686,96.686,0,0,1-1-11.935,80.067,80.067,0,0,1,.386-9.942,26.713,26.713,0,0,1,2.372-1.366.544.544,0,0,0,.305-.639.736.736,0,0,0-.23-.377.631.631,0,0,0-.419-.164.662.662,0,0,0-.3.076c-.5.257-1.01.538-1.547.86a78.978,78.978,0,0,1,2.19-11.174,76.372,76.372,0,0,1,3.8-10.734c.911-2.063,1.77-3.837,2.626-5.424a44.1,44.1,0,0,1,3.206-5.141,11.275,11.275,0,0,1,2.58.465.674.674,0,0,0,.2.033.606.606,0,0,0,.575-.549.678.678,0,0,0-.068-.425.617.617,0,0,0-.369-.292,11.382,11.382,0,0,0-2.009-.426,29.3,29.3,0,0,1,2.231-2.491,26.375,26.375,0,0,1,2.784-2.389,30.313,30.313,0,0,1,3.061-2A35.948,35.948,0,0,1,24.673,14c1.078-.477,2.227-.927,3.415-1.337a93.2,93.2,0,0,1,14.9-3.432c.469-.079.938-.154,1.392-.226a26.052,26.052,0,0,0,5.762-1.352,9.805,9.805,0,0,0,2.481-1.436,9.493,9.493,0,0,0,2.088-2.362.678.678,0,0,1,.558-.311.524.524,0,0,1,.294.087c.1.068.236.157.374.251l.011-.03.009-.024a15.583,15.583,0,0,0,.493-2.2c.085-.492.173-1,.295-1.5A.158.158,0,0,1,56.909,0,.2.2,0,0,1,57.1.127a5.568,5.568,0,0,1,.3,2.151,9.084,9.084,0,0,1-.418,2.33l.576.411a38.067,38.067,0,0,0,3.44,2.276c2.1,1.179,5.7,1.807,8.081,2.222l.109.019a35.455,35.455,0,0,0,6.031.569c.412,0,.822-.01,1.219-.029a10.28,10.28,0,0,0,2.753-.467,5.639,5.639,0,0,0,1.324-.636c.088-.059.171-.119.256-.184a17.808,17.808,0,0,1-.129-3.023,6.244,6.244,0,0,1,.631-3.024.039.039,0,0,1,.035-.022.053.053,0,0,1,.047.033A11.04,11.04,0,0,1,81.977,6.1c.02.234.04.476.063.714a3.254,3.254,0,0,1,.939-.14,3.138,3.138,0,0,1,2.568,1.334,5.978,5.978,0,0,1,.762,1.7,10.47,10.47,0,0,0,.369,1.015,2.8,2.8,0,0,0,.267.412,1.784,1.784,0,0,1,.368.661c.067.057.1.093.094.1s0,0-.011,0a.418.418,0,0,1-.122-.044c-.068-.022-.11-.035-.125-.038.018.007.055.021.112.04l.017.006.128.064.009,0a2.67,2.67,0,0,1,.627.387,1.259,1.259,0,0,1,.367.572,1.694,1.694,0,0,1,.071.689c.208.1.417.2.619.3.425.209.865.425,1.3.6l.159.065c1.118.456,2.273.928,3.393,1.446,2.5,1.155,4.993,2.437,7.4,3.812l.373.212c.518.295,1.055.6,1.577.917a14.116,14.116,0,0,0-1.586,1.346.576.576,0,0,0-.145.653.7.7,0,0,0,.623.437.6.6,0,0,0,.426-.185,12.931,12.931,0,0,1,1.827-1.509,10.169,10.169,0,0,1,2.807,2.734,14.983,14.983,0,0,1,1.363,2.908l.006.016.095.246a14.971,14.971,0,0,0,1.624,3.143l.008.012a.5.5,0,0,1,.032.053l.138.008h.008l.145.008c2.086.119,4.2.281,6.277.479l.961.088a41.519,41.519,0,0,1,5.134.679.576.576,0,0,1,.361.3.48.48,0,0,1,.037.4c-.067.165-.146.358-.227.552-2.156,5.248-4.658,10.64-7.65,16.484a1.858,1.858,0,0,1,.864.226,1.344,1.344,0,0,1,.581.754,10.109,10.109,0,0,1,.525,2.137,4.946,4.946,0,0,1-.178,2.165.063.063,0,0,1-.06.048.069.069,0,0,1-.034-.009,2.9,2.9,0,0,0,.8,2.1,5.788,5.788,0,0,0,.652.547,4.068,4.068,0,0,1,.881.818c.672.93.212,1.677-.275,2.468-.092.15-.187.3-.275.46a.766.766,0,0,0-.076.746,1.9,1.9,0,0,0,.485.545,3.332,3.332,0,0,1,.437.437,2.141,2.141,0,0,1,.4.854,2.756,2.756,0,0,1,.034.946,6.22,6.22,0,0,1-.754,2.067c-.094.181-.189.371-.28.555a8.9,8.9,0,0,1-1.077,1.8.375.375,0,0,1-.064.061h.017c.086,0,.2.137.226.209l.049.112.05.115,0-.013,0-.013a.094.094,0,0,1,.011-.09.166.166,0,0,1,.128-.066h0c.1,0,.259.184.291.267a38.192,38.192,0,0,1,1.511,4.054l.171.662.034.132.308,1.191c.228.975.366,1.973.5,2.939l0,.012c.108.681.185,1.359.23,2.013.108.987.173,1.993.192,2.989a37.341,37.341,0,0,1-.419,4.824,19.455,19.455,0,0,1-.323,1.965,24.236,24.236,0,0,1-.686,2.919c-.117.484-.237.983-.343,1.424l-.09.373-.01.027-.182.491a9.215,9.215,0,0,1-.4,1.122c-.053.162-.113.332-.184.52a15.2,15.2,0,0,0-4.077-.746h-.013a.593.593,0,0,0-.6.624.683.683,0,0,0,.152.446.6.6,0,0,0,.465.21,13.469,13.469,0,0,1,3.567.641c-.183.368-.382.726-.593,1.063l-.021.042c-.575,1.13-1.17,2.3-1.852,3.4a20.9,20.9,0,0,1-1.3,1.859,14.142,14.142,0,0,1-2.759,2.77,7.324,7.324,0,0,1-1.643,1.042,12.285,12.285,0,0,1-2.1.7,11.6,11.6,0,0,1-1.218.227c-.219.027-.443.044-.659.06-.267.02-.544.04-.815.081a6.173,6.173,0,0,0-1.3.323,3.162,3.162,0,0,0-.595.3,4.352,4.352,0,0,0-.446.457.02.02,0,0,1-.011.009,1.184,1.184,0,0,1-.985.817A31.8,31.8,0,0,1,97.15,112.46Zm-51.788-9.793a.663.663,0,0,0-.168.022.7.7,0,0,0-.417.359.515.515,0,0,0-.03.428,8.818,8.818,0,0,0,1.822,2.86.59.59,0,0,0,.426.192.694.694,0,0,0,.612-.43.592.592,0,0,0-.134-.667,7.189,7.189,0,0,1-1.493-2.3A.683.683,0,0,0,45.362,102.667Zm8.693-14.009a.631.631,0,0,0-.15.019,3.536,3.536,0,0,1-.406.07,2.2,2.2,0,0,0-.6.141c-.194.08-.386.173-.572.264l-.229.11-1.846.875c-1.164.553-2.309,1.1-3.4,1.623-2.091,1-4.2,2.058-6.237,3.079l0,0-.938.47c-2.118,1.06-4.581,2.295-7.016,3.527-1.24.628-2.456,1.268-3.482,1.812l-.317.167c-.442.233-.9.474-1.342.724-.119.067-.241.131-.37.2a4.159,4.159,0,0,0-1.223.836.068.068,0,0,0-.009.071.051.051,0,0,0,.047.031h0a7.153,7.153,0,0,0,2.493-.91c.275-.139.535-.271.783-.383l.75-.338h0c.883-.4,1.8-.81,2.69-1.227,2.823-1.319,5.139-2.39,7.288-3.372.975-.445,1.966-.892,2.924-1.325,1.394-.629,2.835-1.279,4.245-1.932,1.18-.546,2.382-1.1,3.572-1.646l1.717-.786.283-.128.012-.006c.185-.083.377-.169.563-.259a3.312,3.312,0,0,0,.685-.463c.1-.085.211-.172.34-.265A.561.561,0,0,0,54.52,89,.478.478,0,0,0,54.055,88.658ZM94.74,99.718a.7.7,0,0,0-.615.432.587.587,0,0,0,.137.663c.176.179.347.367.513.55a7.841,7.841,0,0,0,1.274,1.208.523.523,0,0,0,.3.091.681.681,0,0,0,.574-.321.6.6,0,0,0,.062-.483.739.739,0,0,0-.291-.392,5.985,5.985,0,0,1-1.037-1.015c-.159-.183-.323-.371-.491-.542A.594.594,0,0,0,94.74,99.718ZM66.882,95.666a.594.594,0,0,0-.426.19A22.376,22.376,0,0,0,64.515,98.2a.515.515,0,0,0-.082.414.715.715,0,0,0,.312.461.592.592,0,0,0,.307.088.727.727,0,0,0,.568-.318,20.073,20.073,0,0,1,1.741-2.08A.587.587,0,0,0,67.5,96.1.7.7,0,0,0,66.882,95.666ZM15.137,90.9a.669.669,0,0,0-.3.072c-.4.2-.812.375-1.211.549a18.667,18.667,0,0,0-1.919.924.582.582,0,0,0-.286.684.67.67,0,0,0,.613.511.632.632,0,0,0,.319-.091,18.652,18.652,0,0,1,1.92-.924c.4-.174.813-.354,1.211-.549a.533.533,0,0,0,.31-.626A.708.708,0,0,0,15.137,90.9Zm97.277-10.128a.065.065,0,0,0-.047.02.053.053,0,0,0-.015.04,5.6,5.6,0,0,0,.371,1.486c.068.194.137.4.195.589.289.973.49,1.772.634,2.514a18.756,18.756,0,0,1,.246,2.141,14,14,0,0,0,.411,2.829.529.529,0,0,0,.518.415.673.673,0,0,0,.609-.415,4.693,4.693,0,0,0,.331-1.317,6.686,6.686,0,0,0,0-1.378,12.628,12.628,0,0,0-.619-2.685,12.217,12.217,0,0,0-1.067-2.4,9.61,9.61,0,0,0-.662-1.011,3.074,3.074,0,0,0-.873-.815A.059.059,0,0,0,112.413,80.769ZM79.4,82.823a.67.67,0,0,0-.558.266.509.509,0,0,0-.031.5c.176.434.368.87.553,1.291s.376.854.552,1.287a.708.708,0,0,0,1.2.16.51.51,0,0,0,.031-.5c-.176-.435-.368-.87-.553-1.291h0c-.185-.42-.376-.853-.551-1.286A.671.671,0,0,0,79.4,82.823Zm16.81-.419a.684.684,0,0,0-.195.03,26.384,26.384,0,0,0-3.091,1.211c-.231.1-.493.218-.745.326a.545.545,0,0,0-.286.254.508.508,0,0,0-.037.331.737.737,0,0,0,.693.578.69.69,0,0,0,.275-.059c.208-.09.42-.183.624-.273l.011,0a25,25,0,0,1,2.895-1.131.611.611,0,0,0,.441-.7.706.706,0,0,0-.187-.389A.546.546,0,0,0,96.212,82.4Zm-57.268-.547a.7.7,0,0,0-.619.434.582.582,0,0,0,.141.658l1.657,1.657a.6.6,0,0,0,.426.188.7.7,0,0,0,.619-.434.582.582,0,0,0-.141-.658l-1.657-1.657A.6.6,0,0,0,38.944,81.858Zm-9.9-27.173a.144.144,0,0,0-.1.042.134.134,0,0,0-.033.1c.046.8.117,1.609.187,2.391h0c.092,1.041.188,2.117.223,3.182.058,1.76.051,3.6-.02,5.636-.058,1.659-.168,3.409-.345,5.505-.046.541-.12,1.108-.192,1.656h0a17.039,17.039,0,0,0-.218,3.63c-1.7.445-3.159.894-4.47,1.373-.274.1-.56.2-.862.3A19.48,19.48,0,0,0,20.2,79.742a4.977,4.977,0,0,0-2.216,2.13.056.056,0,0,0,0,.054.055.055,0,0,0,.044.028.043.043,0,0,0,.034-.018,3.661,3.661,0,0,1,1.395-1.024,12.184,12.184,0,0,1,1.673-.569l.326-.094c1.271-.373,2.536-.7,3.94-1.069,2.64-.685,5.357-1.249,7.985-1.8h0l.295-.061,1.294-.268c2.3-.475,4.684-.967,7.007-1.538l.359-.088.011,0c1.183-.29,2.407-.589,3.574-.986A15.672,15.672,0,0,0,49.8,72.68a.534.534,0,0,0,.176-.58.348.348,0,0,0-.347-.261.494.494,0,0,0-.056,0,23.69,23.69,0,0,0-3.4.739l-.008,0c-.229.061-.465.125-.694.185-.571.149-1.149.309-1.708.464h0c-.824.227-1.675.463-2.52.67-1.965.482-3.975.924-5.918,1.352h0c-.916.2-1.863.41-2.793.62-1.06.239-1.929.443-2.736.641a12.537,12.537,0,0,0,.195-1.608c.012-.151.024-.307.037-.461.022-.255.045-.514.068-.764l0-.026c.057-.642.117-1.306.169-1.959.174-2.172.271-4.072.3-5.811a44.526,44.526,0,0,0-.253-5.635c-.092-.822-.211-1.793-.391-2.766a16.87,16.87,0,0,0-.709-2.7A.163.163,0,0,0,29.049,54.685Zm62.791-5.7c-.76,0-1.521.066-2.258.129h-.005l-.591.049a32.086,32.086,0,0,0-4.966.756,6.835,6.835,0,0,0-1.9.745,6.308,6.308,0,0,0-1.564,1.3,18.248,18.248,0,0,0-1.96,2.907l-.262.447a21.821,21.821,0,0,1-2.83,3.8,20.05,20.05,0,0,1-3.565,3.03,1.1,1.1,0,0,1-.436.483.037.037,0,0,1,.006.01l-.166.074-.007,0-.007,0-.3.133a46.583,46.583,0,0,0-5,2.436c-.009.069-.018.139-.028.206v0c-.017.124-.034.24-.044.354-.03.357-.07.718-.109,1.068s-.078.708-.109,1.063a36.834,36.834,0,0,0-.16,4.292,21.8,21.8,0,0,0,.593,4.455c.141.581.328,1.156.509,1.712l.036.111a16.587,16.587,0,0,1,3.219-1.8A12.983,12.983,0,0,1,73.532,75.6a8.921,8.921,0,0,1,1.3-.09,18.734,18.734,0,0,1,2.582.228l.259.037.014,0a13.607,13.607,0,0,0,1.927.185,4.609,4.609,0,0,0,1.4-.194,3.607,3.607,0,0,0,1.527-1,11.877,11.877,0,0,0,1.148-1.5,10.031,10.031,0,0,1,1.326-1.67A4.009,4.009,0,0,1,87.36,70.47a3.7,3.7,0,0,1,.389-.018c.1,0,.208,0,.31.005h.007c.1,0,.213.005.318.005a2.36,2.36,0,0,0,.975-.166,2.077,2.077,0,0,0,1.124-1.4.841.841,0,0,1,.443-.518,2.42,2.42,0,0,1-.765-.5c-.076-.065-.154-.131-.237-.2-.454-.361-.909-.7-1.352-1.012-.281-.2-.571-.39-.851-.577l-.431-.288c-.073-.05-.165-.124-.271-.211a2.022,2.022,0,0,0-.947-.548.322.322,0,0,0-.066.007H86a.063.063,0,0,1-.051-.025.044.044,0,0,1-.006-.041c.063-.17.225-.256.481-.256a3.653,3.653,0,0,1,1.331.377,13.957,13.957,0,0,1,1.645.88,7.786,7.786,0,0,1,2.207,1.76.5.5,0,0,1-.1.58,1.224,1.224,0,0,0,.305.04,1.39,1.39,0,0,0,1.005-.491,2.448,2.448,0,0,0,.552-1.038,7.732,7.732,0,0,0-.1-3.025l-.04-.241a.155.155,0,0,1,.036-.127.152.152,0,0,1,.112-.055.119.119,0,0,1,.032,0l.035-.08c-.774-.338-1.6-.607-2.4-.867h0c-.354-.116-.721-.235-1.077-.359l-.653-.227-.054-.019-1.525-.531-.226-.077a2.622,2.622,0,0,1-1.311-.738.675.675,0,0,1-.122-.633.5.5,0,0,1,.376-.331,1.9,1.9,0,0,1,.423-.047,4.013,4.013,0,0,1,1.377.332c.114.042.231.085.35.126.623.212,1.248.426,1.853.633l.235.08c.324.11.656.218.977.323l0,0a26.9,26.9,0,0,1,2.7.986,5.3,5.3,0,0,1,1.361.858,3.864,3.864,0,0,1,.955,1.286c.042.093.085.221.134.37.151.457.359,1.083.737,1.168a.379.379,0,0,0,.083.01c.223,0,.4-.216.539-.642a5.329,5.329,0,0,0,.182-.945,6.411,6.411,0,0,0-.091-1.982,7.339,7.339,0,0,0-.669-1.919,6.253,6.253,0,0,0-2.75-2.811,20.005,20.005,0,0,0-3.716-1.224l-.138-.036c-1.043-.27-2.153-.5-3.3-.682-.422-.069-.88-.135-1.4-.2a.079.079,0,0,1-.073-.082.069.069,0,0,1,.073-.067c.4-.018.8-.027,1.19-.027.184,0,.369,0,.551.006A13.884,13.884,0,0,1,93.3,53.48c.054,0,.109,0,.163,0a3.12,3.12,0,0,1,2.069.841,3.791,3.791,0,0,1,.73.894,3.631,3.631,0,0,1,.424,1.07.628.628,0,0,1-.345.753,7.665,7.665,0,0,1,2.922,4.121c.031.093.059.183.086.275a4.008,4.008,0,0,1,.78-1.193,5.876,5.876,0,0,1,1.082-.92,19.514,19.514,0,0,1,2.706-1.5.9.9,0,0,1-.224-.126,1.7,1.7,0,0,1-.465-1.229c-.006-.057-.012-.116-.019-.173a5.447,5.447,0,0,1,.032-1.888,2.9,2.9,0,0,1,.333-.826,3.281,3.281,0,0,1,.536-.67,5.4,5.4,0,0,1,1.46-.969,21.424,21.424,0,0,1,4.107-1.455A23.1,23.1,0,0,1,114,49.848a.7.7,0,0,1,.067-.163c1.446-2.592,2.868-5.34,4.229-8.166,1.282-2.662,2.551-5.484,3.773-8.388-1.008-.075-2.032-.2-3.023-.319h0c-.735-.089-1.494-.181-2.242-.253-1.983-.19-3.989-.346-5.962-.464-.409-.025-.82-.048-1.219-.069h-.022c-1.342-.071-2.724-.126-4.106-.165L105,31.846l-.051,0c-.639-.019-1.3-.039-1.951-.039l-.312,0a2.048,2.048,0,0,0-.591.069.98.98,0,0,0-.481.33,1.85,1.85,0,0,0-.177.277,1.066,1.066,0,0,1-.355.436l-.046.026-.084.047-.041.041,0,0a.865.865,0,0,0-.084.09,6.991,6.991,0,0,0-.51.772c-.447.77-.858,1.581-1.256,2.364l-.006.011c-.3.584-.583,1.183-.86,1.762-.393.821-.8,1.669-1.236,2.484-.763,1.421-1.472,2.667-2.168,3.809-.177.288-1.552,2.386-2.334,3.443a7.273,7.273,0,0,1,1.835.286c.129-.3.28-.586.425-.867h0c.124-.239.252-.487.367-.737.085-.187.162-.388.235-.582a5.209,5.209,0,0,1,.5-1.059.346.346,0,0,1,.289-.165.353.353,0,0,1,.267.126.364.364,0,0,1,.075.3,4.672,4.672,0,0,1-.786,1.609l0,.008-.044.067a7.6,7.6,0,0,1-1.082,1.376l.064.022a4.434,4.434,0,0,1,1.6,1.122,15.315,15.315,0,0,1,1.271,1.573c.151.205.295.4.441.589a27.787,27.787,0,0,1,1.941,2.924,11.223,11.223,0,0,1,.923,1.992,2.258,2.258,0,0,1,.091,1.562,1.038,1.038,0,0,1-.979.549h-.042a.554.554,0,0,1-.552-.592.675.675,0,0,1,.146-.434.565.565,0,0,1,.445-.2c-.135,0-.139-.089-.143-.2a.782.782,0,0,0-.015-.149,2.709,2.709,0,0,0-.144-.4c-.016-.038-.032-.077-.047-.115a12.468,12.468,0,0,0-.649-1.344,19.751,19.751,0,0,0-1.348-2.087c-.51-.7-1.055-1.375-1.614-2.064l-.075-.092A3.942,3.942,0,0,0,93.89,49.22a7.681,7.681,0,0,0-1.987-.235Zm8.215,23.482h0c.01.233.019.468.029.7.027.651.038,1.313.049,1.952v.013c0,.181.006.368.01.551,0,.077,0,.168-.008.265a2.307,2.307,0,0,0,.037.723c1.03.032,2.084.048,3.222.048h.6c.8,0,1.512-.02,2.179-.051a.648.648,0,0,1,.563-.323h.11a4.395,4.395,0,0,0,1.49-.252,5.074,5.074,0,0,0,1.255-.665,14.132,14.132,0,0,0,2.127-2.031l0,0c.223-.245.454-.5.686-.741a20.249,20.249,0,0,1,5.192-4.127,11.381,11.381,0,0,1,.663-1.24c.137-.233.279-.473.4-.71l.021-.04a3.086,3.086,0,0,0,.543-2.395,2.118,2.118,0,0,0-.622-.751,2.18,2.18,0,0,1-.631-.76,1.445,1.445,0,0,1-.1-.742,1.951,1.951,0,0,1,.247-.713,3.82,3.82,0,0,1,.375-.511,2,2,0,0,0,.576-1.073c.024-.544-.508-.959-.977-1.325a5.2,5.2,0,0,1-.435-.363,2.8,2.8,0,0,1-.8-1.5,2.733,2.733,0,0,1,.245-1.677.08.08,0,0,1,.065-.045,16.043,16.043,0,0,0-.348-1.739,8.217,8.217,0,0,0-.6-1.635.911.911,0,0,0-.939-.514c-.1,0-.207.005-.318.011h-.006l-.215.009c-.562.019-1.09.054-1.614.109a22.838,22.838,0,0,0-3.477.638,21.246,21.246,0,0,0-3.331,1.183,5.45,5.45,0,0,0-1.335.791,2.115,2.115,0,0,0-.745,1.316,5.3,5.3,0,0,0,.046,1.543l.008.056c.021.149.046.335.106.363a.12.12,0,0,0,.048.007,4.076,4.076,0,0,0,.706-.161c.079-.022.142-.04.17-.046l.329-.071.026-.006c1.043-.225,2.121-.457,3.181-.688.308-.066.629-.148.939-.226h0a11.165,11.165,0,0,1,2.428-.429h.009a.477.477,0,0,1,.439.4.379.379,0,0,1-.218.448,15.469,15.469,0,0,1-3.317.849c-.461.083-.938.169-1.385.267l-.393.086-.393.086c-.415.193-.838.382-1.248.564a32.182,32.182,0,0,0-3.162,1.549l-.046.027A5.684,5.684,0,0,0,100.33,61.3a2.009,2.009,0,0,0-.251.8,1.665,1.665,0,0,0,.11.818,1.075,1.075,0,0,0,.767.642,2.273,2.273,0,0,0,.516.055,3.658,3.658,0,0,0,.5-.037,10.42,10.42,0,0,0,1.376-.324c.262-.074.509-.144.737-.2l3.088-.7,1.224-.277,5.106-1.157a.486.486,0,0,1,.107-.012.407.407,0,0,1,.3.129.5.5,0,0,1,.133.287.415.415,0,0,1-.056.268.391.391,0,0,1-.252.168c-2.794.635-5.611,1.277-8.336,1.9-.351.08-.711.17-1.058.258h0a21.962,21.962,0,0,1-2.36.5l-.02.013a11.616,11.616,0,0,0-2.8,2.235c-.052.061-.107.128-.173.213a.949.949,0,0,0-.2.95.734.734,0,0,0,.693.367c.025,0,.052,0,.077,0a3.818,3.818,0,0,0,.952-.179c.1-.027.2-.056.3-.08.837-.21,1.7-.4,2.562-.567a98.811,98.811,0,0,1,9.929-1.247l.472-.043.051,0a.38.38,0,0,1,.293.123.453.453,0,0,1,.108.281.555.555,0,0,1-.1.352.476.476,0,0,1-.347.191l-.114.011h0c-2.343.221-4.766.45-7.135.788-1.291.185-2.438.375-3.5.58-.4.078-.817.18-1.215.279-.2.049-.4.1-.6.146a.059.059,0,0,1-.008.053,4.53,4.53,0,0,0-.722,1.76,2.306,2.306,0,0,0,.036.937,1.7,1.7,0,0,0,.489.815,1.519,1.519,0,0,0,1.1.368,6.427,6.427,0,0,0,.684-.049l.053-.006c.716-.078,1.426-.176,2.152-.278,1.185-.167,2.416-.362,3.764-.6.627-.108,1.284-.228,1.952-.358.086-.016.165-.034.241-.05h0a2.583,2.583,0,0,1,.541-.08,1.185,1.185,0,0,1,.538.134.246.246,0,0,1,.136.177.34.34,0,0,1-.076.282,2.564,2.564,0,0,1-1.667.585c-.181.021-.352.041-.51.069-.944.17-1.782.308-2.561.424l-.587.088c-1.418.213-2.884.434-4.327.518-.067,0-.134.006-.2.006a2.763,2.763,0,0,1-1.277-.287A2.109,2.109,0,0,1,100.055,72.467Zm.953-3.6a9.574,9.574,0,0,1-1.18.2.178.178,0,0,1-.03,0c.056.418.1.848.139,1.314a4.457,4.457,0,0,1,1.071-1.517ZM10.77,66.4a.712.712,0,0,0-.631.442.564.564,0,0,0,.153.642,8.256,8.256,0,0,0,2.783,1.535l.006,0,.256.1a.631.631,0,0,0,.232.047.559.559,0,0,0,.523-.5.683.683,0,0,0-.414-.785l-.3-.117A6.434,6.434,0,0,1,11.2,66.578.614.614,0,0,0,10.77,66.4Zm88.981-2.557A6.568,6.568,0,0,1,99.7,65.05a6.621,6.621,0,0,1,1.1-.644A1.928,1.928,0,0,1,99.751,63.841ZM54.922,59.577a.59.59,0,0,0-.6.619.687.687,0,0,0,.152.448.6.6,0,0,0,.465.213,7.236,7.236,0,0,1,1.615.285h0l.24.061a.706.706,0,0,0,.17.022.645.645,0,0,0,.62-.595.627.627,0,0,0-.079-.4.586.586,0,0,0-.371-.258l-.115-.029-.031-.008a9.343,9.343,0,0,0-2.05-.355Zm38.122-4.939c-.149,0-.311.008-.524.026-1.035.089-2.061.261-3.107.444A19.444,19.444,0,0,1,95,56.335c.091.035.169.068.241.1-.063-.115-.122-.234-.18-.349a3.431,3.431,0,0,0-.6-.927A1.851,1.851,0,0,0,93.044,54.638ZM37.1,49.649a.707.707,0,0,0-.659.549.534.534,0,0,0,.31.627,11.722,11.722,0,0,0,2.731.985.72.72,0,0,0,.15.016.673.673,0,0,0,.646-.623.6.6,0,0,0-.085-.388.568.568,0,0,0-.371-.239,10.316,10.316,0,0,1-2.425-.856A.668.668,0,0,0,37.1,49.649Zm22.411-7.916a.586.586,0,0,0-.588.452,28.812,28.812,0,0,0-.737,3.683.66.66,0,0,0,.156.542.766.766,0,0,0,.563.261.5.5,0,0,0,.515-.463,28.788,28.788,0,0,1,.737-3.683A.587.587,0,0,0,60.071,42,.707.707,0,0,0,59.515,41.733Zm-42.078,1.8a.63.63,0,0,0-.233.048,21.412,21.412,0,0,0-2.915,1.353.6.6,0,0,0-.274.315.616.616,0,0,0-.011.374.734.734,0,0,0,.222.357.584.584,0,0,0,.387.152.629.629,0,0,0,.32-.093,19.3,19.3,0,0,1,2.61-1.224.686.686,0,0,0,.413-.79A.557.557,0,0,0,17.437,43.531ZM82.316,32.868a.537.537,0,0,0-.491.325,10.175,10.175,0,0,0-.566,1.314,4.772,4.772,0,0,0-.258,1.4.583.583,0,0,0,.157.434.651.651,0,0,0,.467.184.687.687,0,0,0,.443-.154.6.6,0,0,0,.211-.463,4.906,4.906,0,0,1,.65-2.071.626.626,0,0,0-.023-.628A.726.726,0,0,0,82.316,32.868Zm-41.174-2.02a.7.7,0,0,0-.183.026c-.788.216-1.6.376-2.39.531-.607.119-1.234.242-1.846.39a.582.582,0,0,0-.371.254.621.621,0,0,0-.081.4.649.649,0,0,0,.625.6.71.71,0,0,0,.166-.021c.612-.148,1.24-.271,1.846-.39.787-.155,1.6-.314,2.389-.53a.6.6,0,0,0,.446-.683.714.714,0,0,0-.189-.4A.563.563,0,0,0,41.141,30.847ZM16.024,28.985a.561.561,0,0,0-.525.5.68.68,0,0,0,.415.782c.424.166.863.315,1.287.46h0c.425.144.864.294,1.29.461a.633.633,0,0,0,.23.047.561.561,0,0,0,.525-.5.68.68,0,0,0-.416-.783c-.425-.167-.864-.316-1.288-.46s-.865-.294-1.29-.461A.633.633,0,0,0,16.024,28.985Zm39.835-4.58h0a.588.588,0,0,0-.463.2.672.672,0,0,0-.154.44.6.6,0,0,0,.618.639,14.229,14.229,0,0,1,2.592.162.73.73,0,0,0,.132.012.631.631,0,0,0,.466-.2.755.755,0,0,0,.2-.442.528.528,0,0,0-.459-.6,15.844,15.844,0,0,0-2.932-.207ZM90.3,17.2a.6.6,0,0,0-.332.109l-1.657,1.1a.638.638,0,0,0-.263.342.67.67,0,0,0,0,.392.634.634,0,0,0,.573.479.6.6,0,0,0,.332-.109l.331-.221,1.326-.884a.638.638,0,0,0,.263-.342.67.67,0,0,0,0-.392A.635.635,0,0,0,90.3,17.2ZM32.426,15.394a.739.739,0,0,0-.122.01,15.128,15.128,0,0,0-2.946.737.677.677,0,0,0-.417.779.563.563,0,0,0,.528.5.637.637,0,0,0,.229-.046,14.774,14.774,0,0,1,2.946-.737.518.518,0,0,0,.46-.586.761.761,0,0,0-.2-.45A.642.642,0,0,0,32.426,15.394Zm31-2.225a.679.679,0,0,0-.572.32.651.651,0,0,0,.229.875,9.531,9.531,0,0,1,1.321,1.166l.022.022a.6.6,0,0,0,.426.188.7.7,0,0,0,.619-.434.582.582,0,0,0-.141-.658,11.244,11.244,0,0,0-1.6-1.389A.534.534,0,0,0,63.43,13.17Z" transform="translate(5.595 1.119)"/>
    </g>
    <g id="Grupo_16" data-name="Grupo 16" transform="translate(30.385 0)">
      <g id="head_Long_Curly" data-name="head/Long Curly" transform="translate(0.271 0)">
        <path id="_Background-2" data-name="ðŸŽ¨ Background" d="M49.778,7.947C39.265-.6,22.417-3.372,11.163,5.249,2.419,13.339-1.2,36.329.348,47.882c.43,7.41,6.091,15.808,14.4,13.465,1.411-.139,2.781-.68,4.205-.793a20.107,20.107,0,0,1,5.12.041c3.7.524,6.989,2.491,10.584,3.411A25.058,25.058,0,0,0,54.518,60.72C73.5,48.243,64.9,20.024,49.778,7.947Z" transform="translate(5.115 15.505)" fill="#fff"/>
        <path id="_Ink-2" data-name="ðŸ– Ink" d="M21.4,93.929a6.007,6.007,0,0,1-1.7-.242,6.193,6.193,0,0,1-.965-.375,5.693,5.693,0,0,1-1.046-.659,5.254,5.254,0,0,1-.853-.856,6.933,6.933,0,0,1-2.771.6,6.045,6.045,0,0,1-1.3-.139,5.515,5.515,0,0,1-1.239-.432,6.021,6.021,0,0,1-1.025-.16A5.355,5.355,0,0,1,8,90.241a4.632,4.632,0,0,1-.848-1.167,3.831,3.831,0,0,1-.4-1.379,5.089,5.089,0,0,1-3.5-3.508,5.3,5.3,0,0,1-.191-1.232,5.682,5.682,0,0,1,.094-1.249A5.942,5.942,0,0,1,.933,79.445a7.106,7.106,0,0,1-.642-1.5,6.928,6.928,0,0,1-.281-1.6A6.827,6.827,0,0,1,.8,72.866a11.959,11.959,0,0,1,2.189-2.945,4.231,4.231,0,0,1-.826-2.291,4.945,4.945,0,0,1,.167-1.472,6.853,6.853,0,0,1,.546-1.388,12.882,12.882,0,0,1,1.714-2.447c.121-.142.236-.271.353-.395a4.411,4.411,0,0,1-.373-.793,7.2,7.2,0,0,1-.3-3.02,13.107,13.107,0,0,1,.646-3,12.442,12.442,0,0,1,1.568-3.138,9.739,9.739,0,0,1,2.389-2.43c.112-.252.233-.5.361-.743h0a5.6,5.6,0,0,1-.465-2.024c-.065-1.928.821-3.981,2.631-6.1a13.134,13.134,0,0,1,3.514-2.88,14.426,14.426,0,0,1,2.076-.971,14.59,14.59,0,0,1,2.2-.632,5.613,5.613,0,0,1-.09-1.353,6.166,6.166,0,0,1,.229-1.361,6.851,6.851,0,0,1,1.351-2.518,5.956,5.956,0,0,1,1.218-1.1,6.382,6.382,0,0,1,1.406-.709,9.3,9.3,0,0,1,3.153-.495c.321,0,.657.012,1,.036a2.523,2.523,0,0,1-.008-.335,3.662,3.662,0,0,1,.922-2.1,9.175,9.175,0,0,1,1.721-1.579,9.616,9.616,0,0,1,3.6-1.607,5.7,5.7,0,0,1-.1-1.4,5.8,5.8,0,0,1,.25-1.415,7.117,7.117,0,0,1,1.061-2.11,7.451,7.451,0,0,1,1.649-1.639,3.876,3.876,0,0,1,.4-3.751,6.794,6.794,0,0,1,3.56-2.486,4.774,4.774,0,0,1,2.92-3.013,7.147,7.147,0,0,1,2.556-.435,9.6,9.6,0,0,1,1.076.062,8.3,8.3,0,0,1,3.114-3.023,9.065,9.065,0,0,1,4.2-1.171c.645-.241,1.339-.463,2.064-.66A4.408,4.408,0,0,1,58.555.359,5.1,5.1,0,0,1,60.505,0a13.74,13.74,0,0,1,2.6.341c.542.106,1.1.216,1.657.282.172.019.346.033.518.043h.073c.159,0,.32,0,.478.015h.008c.494,0,1-.029,1.485-.058s.989-.057,1.48-.057a8.7,8.7,0,0,1,1.255.081,5.679,5.679,0,0,1,2.7,1.14A4.392,4.392,0,0,1,73.842,3,9.344,9.344,0,0,1,78.86,4.556a8.639,8.639,0,0,1,1.958,1.766A7.477,7.477,0,0,1,82.1,8.62a14.362,14.362,0,0,1,3-.352,8.1,8.1,0,0,1,2.926.5,4.52,4.52,0,0,1,2.427,2.019,6.014,6.014,0,0,1,.554,2.26c.042.38.085.772.166,1.162a1.353,1.353,0,0,0,.223.592.734.734,0,0,0,.563.237c.083.006.17.009.266.009.172,0,.344-.009.511-.019s.34-.018.511-.018a3.436,3.436,0,0,1,.406.022,4.8,4.8,0,0,1,1.764.571,5.065,5.065,0,0,1,1.436,1.18,5.468,5.468,0,0,1,.93,1.561,4.591,4.591,0,0,1,.317,1.786,8.079,8.079,0,0,1-.286,1.68l0,.008c-.03.122-.061.248-.089.373l-.008.037a2.618,2.618,0,0,0-.1.71.8.8,0,0,0,.308.609,5.182,5.182,0,0,0,.735.476,5.415,5.415,0,0,1,.727.467,3.932,3.932,0,0,1,1.1,1.4,5.341,5.341,0,0,1,.453,1.749,10.158,10.158,0,0,1-.007,1.816c-.021.262-.046.526-.07.781a17.3,17.3,0,0,0-.108,2.867,26.188,26.188,0,0,0,.561,3.427l.007.034.086.41.018.086a29.209,29.209,0,0,1,.6,3.7,9.059,9.059,0,0,1-.387,3.694,7.03,7.03,0,0,1-.858,1.734,4.341,4.341,0,0,1-.307.356c-.309.338-.73.8-.711,1.053a.084.084,0,0,1,0,.031c0,.006,0,.006.01.018s.031.033.07.08a1.552,1.552,0,0,0,.46.316c.09.048.176.094.247.141a4.882,4.882,0,0,1,1.255,1.159,4.417,4.417,0,0,1,.742,1.645,6.277,6.277,0,0,1,.122,1.8,14.78,14.78,0,0,1-.8,3.561A13.722,13.722,0,0,0,101.5,57.7a27.576,27.576,0,0,1,2.041,3.186,10.209,10.209,0,0,1,.993,3.387c.019.109.04.232.061.351.221,1.262.4,2.564.551,3.982.046.44.1.887.144,1.32.14,1.254.284,2.549.357,3.826a23.849,23.849,0,0,1-.055,3.836,25.659,25.659,0,0,1-2.484,8.765,6.752,6.752,0,0,1-2.772,3.149,4.821,4.821,0,0,1-2.213.554l-.158,0a4.345,4.345,0,0,1-.955.931,5.247,5.247,0,0,1-1.259.655,4.742,4.742,0,0,1-1.633.276,7.78,7.78,0,0,1-2.19-.354,3.822,3.822,0,0,1-1.306.724,5.055,5.055,0,0,1-1.573.23c-.248,0-.52-.014-.829-.041a2.984,2.984,0,0,1-.575.259,2.848,2.848,0,0,1-.908.145,3.883,3.883,0,0,1-1.18-.2,9.826,9.826,0,0,1-1.141-.463l-.157-.073h0l-.011-.005c-.222-.007-.452-.011-.7-.011a1.262,1.262,0,0,1-.506.888,1.642,1.642,0,0,1-1,.363,1.121,1.121,0,0,1-.888-.4,1.8,1.8,0,0,0-.432-.363l-.121-.082a1.557,1.557,0,0,1-1.059.4,1.512,1.512,0,0,1-.322-.034A4.814,4.814,0,0,1,78.2,92.55c-.157.015-.3.022-.435.022a3.082,3.082,0,0,1-.751-.087,1.606,1.606,0,0,1-1.038-.776,1.875,1.875,0,0,1-.208-1.229,5.6,5.6,0,0,1-1.189-.414,4.69,4.69,0,0,1-1.055-.689,5.575,5.575,0,0,1-.579.1,4.856,4.856,0,0,1-.545.031,4.92,4.92,0,0,1-1.313-.178,4.646,4.646,0,0,1-1.228-.535,3.721,3.721,0,0,1-.991-.884,1.194,1.194,0,0,0,.046.208.04.04,0,0,1-.006.036.053.053,0,0,1-.041.02.038.038,0,0,1-.036-.023c-.046-.1-.1-.194-.147-.3a4.978,4.978,0,0,1-.313-.7,20.036,20.036,0,0,1-3.773.359c-.363,0-.73-.01-1.091-.03a22.686,22.686,0,0,1-3.187-.4,21.847,21.847,0,0,1-3.095-.856,17.864,17.864,0,0,1-3.2-1.448,7.573,7.573,0,0,1-1.251-.922,5.4,5.4,0,0,1-.967-1.21.649.649,0,0,1-.015-.667.775.775,0,0,1,.81-.368,15.515,15.515,0,0,1,3.618,1.344,21.011,21.011,0,0,0,2.7,1.116,19.605,19.605,0,0,0,5.766.883c.223,0,.449,0,.671-.012a16.756,16.756,0,0,0,5.309-1.067A17.086,17.086,0,0,0,75.3,81.241a16.7,16.7,0,0,0,3.586-3.928,15.974,15.974,0,0,0,2.157-4.96,25.7,25.7,0,0,0,.561-3.285c.128-1.155.2-2.329.253-3.325.121-2.3.2-4.686.232-7.1.018-1.318.023-2.654.028-3.946v-.013c0-1.038.008-2.111.019-3.166s.05-2.064.1-3.275a6.331,6.331,0,0,1-1.447-.529,5.393,5.393,0,0,1-2.083-1.8,4.318,4.318,0,0,0-.674-.788,2.285,2.285,0,0,0-1.283-.4c-.144-.015-.293-.031-.434-.055a5.5,5.5,0,0,1-3.761-2.489,6.436,6.436,0,0,1-1.188.107,12.233,12.233,0,0,1-3.933-.814c-1.359-.477-2.734-.979-4.063-1.464-.62-.226-1.323-.483-2-.728-.195-.07-.394-.146-.586-.219a10.039,10.039,0,0,0-2.217-.655c-.409-.053-.824-.069-1.226-.085a9.926,9.926,0,0,1-1.68-.161,10.229,10.229,0,0,1-2.373-.847,17.632,17.632,0,0,1-2.188-1.3,5.488,5.488,0,0,1-2.668.711,5.156,5.156,0,0,1-1.578-.247,4.617,4.617,0,0,1-1.878-1.159c0,.271-.021.548-.039.817h0c-.02.284-.04.577-.04.87a.521.521,0,0,1-.011.134l.024.072a1.049,1.049,0,0,0,.108.207,1.218,1.218,0,0,1,.109.205,4.325,4.325,0,0,1,.129.465c.026.11.053.223.085.33a4.966,4.966,0,0,1,.28,1.742,5.42,5.42,0,0,1-1.4,3.143,10.974,10.974,0,0,1-1.175,1.209l-.018.044,0,.007c-.037.09-.075.183-.113.273-.092.216-.169.456-.244.688l-.058.18a8.872,8.872,0,0,1,.555,1.106,6.375,6.375,0,0,1,.477,2.234,8.088,8.088,0,0,1-.255,2.286A3.848,3.848,0,0,1,44,52.711a4.6,4.6,0,0,1,.107,1.509,7.247,7.247,0,0,1-1.3,3.166c-.21.342-.426.7-.626,1.067-.021.038-.052.113-.085.191-.062.149-.133.317-.164.317-.006,0-.011-.008-.013-.022a4.642,4.642,0,0,0,.08.691,4.66,4.66,0,0,1,.078.649,10.7,10.7,0,0,1-.28,2.539,10.319,10.319,0,0,1-1.669,3.651,10.79,10.79,0,0,1-1.165,5.994,3.238,3.238,0,0,1,.5,1.515,4.561,4.561,0,0,1-.2,1.575c.045.03.092.062.142.1a4.626,4.626,0,0,1,1.77,1.393c.075.081.152.164.224.239a19.39,19.39,0,0,1,1.755,2.168A13.776,13.776,0,0,1,44.7,82.171a9,9,0,0,1,.468,1.483,7.359,7.359,0,0,1,.173,1.556,1.627,1.627,0,0,1-.136.658c.461,1.139.318,2.68-.719,3.287-.115.067-.218.122-.318.176a2.817,2.817,0,0,0-.791.558c-.095.1-.189.2-.28.291a9.527,9.527,0,0,1-.827.8,3.984,3.984,0,0,1-2.488,1.01,2.9,2.9,0,0,1-.715-.09,5.088,5.088,0,0,1-.879.077,5.186,5.186,0,0,1-.678-.045,4.412,4.412,0,0,1-2.374.738c-.069,0-.14,0-.209-.006a3.818,3.818,0,0,1-.449-.048A7.7,7.7,0,0,1,31.108,93.7c-.117.008-.238.012-.357.012a5.64,5.64,0,0,1-2.768-.721,4.788,4.788,0,0,1-1.085-.8c-.048.022-.1.042-.146.062s-.115.047-.153.067a16.654,16.654,0,0,1-2.515,1.123,8.345,8.345,0,0,1-2.689.485h0ZM71.66,86.22h0c-.207.077-.4.145-.583.209a2.35,2.35,0,0,0,.712.118H71.8c-.029-.063-.055-.125-.084-.2A.563.563,0,0,1,71.66,86.22Zm-41.7-58.45-.043.036,0,0c-.037.031-.075.062-.111.1a2.7,2.7,0,0,0-.677,1l.013,0,.02,0A8.059,8.059,0,0,1,29.961,27.77Zm40.428-24.7h0a4.6,4.6,0,0,1,.3.558c.167-.074.329-.136.492-.192a3.459,3.459,0,0,0-.79-.366Z" transform="translate(-17.583 -6.714)"/>
      </g>
      <g id="Grupo_1" data-name="Grupo 1" transform="translate(5.064 27.347)">
        <g id="face_Calm" data-name="face/Calm" transform="translate(20.207 -0.347)">
          <path id="_Ink-3" data-name="ðŸ– Ink" d="M16.83,29.858a6.091,6.091,0,0,1-3.375-1,6.431,6.431,0,0,1-1.4-1.206,5.051,5.051,0,0,1-.851-1.359,3.855,3.855,0,0,1-.3-1.544.476.476,0,0,1,.113-.3.53.53,0,0,1,.282-.169.545.545,0,0,1,.124-.014.5.5,0,0,1,.206.043.439.439,0,0,1,.218.214c.1.133.235.307.369.476a9.278,9.278,0,0,0,1.532,1.568,4.743,4.743,0,0,0,1.906.9,4.081,4.081,0,0,0,.876.1,4.287,4.287,0,0,0,1.479-.268,5.03,5.03,0,0,0,2.07-1.455,1.111,1.111,0,0,1,.846-.418h.007a1.3,1.3,0,0,1,.9.4,1.4,1.4,0,0,1,.42.916,1.225,1.225,0,0,1-.348.9,6.973,6.973,0,0,1-1.467,1.2,7.1,7.1,0,0,1-1.728.763A6.752,6.752,0,0,1,16.83,29.858Zm1.9-8.891h0a5.581,5.581,0,0,1-1.99-.4,10.05,10.05,0,0,1-2.34-1.328.9.9,0,0,1-.327-.519,1.076,1.076,0,0,1,.046-.583,1.327,1.327,0,0,1,.394-.569.959.959,0,0,1,.614-.24.871.871,0,0,1,.475.146l.155.119.005,0a12.668,12.668,0,0,0,1.465,1.019,3.609,3.609,0,0,0,1.756.56,1.9,1.9,0,0,0,.742-.146,2.073,2.073,0,0,0,.691-.49,2.119,2.119,0,0,0,.4-1.706,3.222,3.222,0,0,0-.855-1.513,6.235,6.235,0,0,0-1.295-1.045.4.4,0,0,1-.109-.461.6.6,0,0,1,.2-.287.612.612,0,0,1,.382-.126.814.814,0,0,1,.137.012,4.341,4.341,0,0,1,1.527.551,3.463,3.463,0,0,1,1.027.947,3.761,3.761,0,0,1,.656,2.513,4.14,4.14,0,0,1-.336,1.319,3.848,3.848,0,0,1-.757,1.133A3.617,3.617,0,0,1,18.734,20.967Zm-15.3-6.143a.765.765,0,0,1-.222-.033.45.45,0,0,1-.3-.262,3.717,3.717,0,0,1,.186-2.8,6.562,6.562,0,0,1,.987-1.618,4.052,4.052,0,0,1,1.06-.951,3.552,3.552,0,0,1,1.685-.434,3.375,3.375,0,0,1,1.624.419,4.226,4.226,0,0,1,1.122.922,11.63,11.63,0,0,1,.871,1.159c.115.167.233.34.354.507a1.021,1.021,0,0,1,.172.949,1.228,1.228,0,0,1-.7.719,1.334,1.334,0,0,1-.513.105,1.172,1.172,0,0,1-.458-.091,1.231,1.231,0,0,1-.66-.7,4.759,4.759,0,0,0-.513-.932,2.8,2.8,0,0,0-.746-.739,1.345,1.345,0,0,0-1.35-.1A4.412,4.412,0,0,0,4.46,12.511a3.071,3.071,0,0,0-.515,1.83.415.415,0,0,1-.134.349.523.523,0,0,1-.291.129A.686.686,0,0,1,3.433,14.824ZM26.6,12.567a1,1,0,0,1-.288-.046,1.09,1.09,0,0,1-.45-.269.9.9,0,0,1-.25-.453,1.854,1.854,0,0,0-.651-1.084,1.3,1.3,0,0,0-1.039-.273,2,2,0,0,0-1.118.67,2.455,2.455,0,0,0-.235.342l-.007.012a2.5,2.5,0,0,1-.464.609.453.453,0,0,1-.287.108.429.429,0,0,1-.128-.02,1.823,1.823,0,0,1-.413-.577,1.135,1.135,0,0,1-.082-.5,1.972,1.972,0,0,1,.363-1,3.882,3.882,0,0,1,1-.979,3.338,3.338,0,0,1,1.108-.522,2.993,2.993,0,0,1,.628-.067,3.2,3.2,0,0,1,1.843.6,3.5,3.5,0,0,1,1.431,2.19,1.165,1.165,0,0,1-.059.647.907.907,0,0,1-.423.471A1.006,1.006,0,0,1,26.6,12.567ZM.549,8.3l-.034,0a.324.324,0,0,1-.169-.082A1.227,1.227,0,0,1,0,7.208a4.373,4.373,0,0,1,.445-1.7A10.858,10.858,0,0,1,1.3,4.075,7.547,7.547,0,0,1,2.4,2.824,9.5,9.5,0,0,1,5.471.953,6.606,6.606,0,0,1,7.66.47l.135,0a2.631,2.631,0,0,1,.815.155,2.143,2.143,0,0,1,.726.451,1.346,1.346,0,0,1,.4.983,1.4,1.4,0,0,1-.4,1.006,2.078,2.078,0,0,1-.859.5,5,5,0,0,1-.938.167,8.528,8.528,0,0,0-.914.135,8.586,8.586,0,0,0-2.207.806A8.167,8.167,0,0,0,2.349,6.144c-.135.144-.263.3-.387.446l0,0c-.115.138-.224.268-.341.394s-.248.283-.39.454a1.933,1.933,0,0,0-.11.194c-.028.059-.055.113-.083.166-.052.1-.1.182-.147.253-.092.154-.139.191-.177.208A.4.4,0,0,1,.549,8.3Zm27.362-.351a.313.313,0,0,1-.052,0,.309.309,0,0,1-.157-.077.3.3,0,0,1-.088-.153,5.736,5.736,0,0,0-.834-2.026,4.372,4.372,0,0,0-1.666-1.421,10.7,10.7,0,0,0-2.33-.783c-.224-.053-.466-.088-.7-.123l-.011,0a5.9,5.9,0,0,1-1.108-.237,1.96,1.96,0,0,1-.91-.614A1.7,1.7,0,0,1,19.74,1.9a1.565,1.565,0,0,1-.038-.661,1.356,1.356,0,0,1,.737-1A2.217,2.217,0,0,1,21.468,0a6.734,6.734,0,0,1,2.472.69l.054.023h0l.18.077a8.113,8.113,0,0,1,2.829,1.888,6.113,6.113,0,0,1,1.454,2.687,3.224,3.224,0,0,1-.293,2.445.29.29,0,0,1-.133.117A.306.306,0,0,1,27.911,7.952Z" transform="translate(8.632 8.801)"/>
        </g>
        <g id="facial-hair_Full_2" data-name="facial-hair/Full 2" transform="translate(14.207 24.653)">
          <path id="_Ink-4" data-name="ðŸ– Ink" d="M30.807,36.632h0a19.992,19.992,0,0,1-3.434-.317,29.523,29.523,0,0,1-7.044-2.24,56.34,56.34,0,0,1-7.489-2.9c-1.245-.582-2.565-1.21-3.808-1.935a16.752,16.752,0,0,1-3.416-2.538,10.452,10.452,0,0,1-1.275-1.542,12.915,12.915,0,0,1-.984-1.732,19.976,19.976,0,0,1-1.3-3.78c-.1-.388-.188-.787-.273-1.188a4.336,4.336,0,0,1-.206-.692c-.173-.8-.333-1.618-.475-2.43-.281-1.6-.51-3.227-.681-4.847S.143,7.216.095,5.557C.087,5.275.07,4.985.052,4.678.019,4.1-.015,3.5.007,2.919A5.258,5.258,0,0,1,.3,1.255,1.829,1.829,0,0,1,1.917,0h.045a1.7,1.7,0,0,1,1.1.431A34.069,34.069,0,0,1,5.918,5.743,54.9,54.9,0,0,0,8.952,11.5a35.556,35.556,0,0,0,4.773,5.326c.029.017.059.036.089.056a12.842,12.842,0,0,0,6.3-3.638c.508-.537.994-1.112,1.463-1.668a19.285,19.285,0,0,1,3.168-3.2,7.258,7.258,0,0,1,1.439-.831,6.187,6.187,0,0,1,1.6-.45,6.586,6.586,0,0,1,.9-.057c.523,0,1.053.05,1.566.1h0c.513.048,1.044.1,1.568.1.171,0,.331-.005.487-.015.257-.017.513-.04.762-.062.477-.043.926-.083,1.381-.083a4.631,4.631,0,0,1,1.965.382A9.553,9.553,0,0,1,39.232,9.72l.072.075a14.768,14.768,0,0,0,1.927,1.688,12.982,12.982,0,0,0,2.162,1.277h.019a.7.7,0,0,1,.559.252c.081.033.164.066.255.1a8.074,8.074,0,0,1,1.208-.976c.169-.121.314-.225.388-.286a.909.909,0,0,1,.581-.2.83.83,0,0,1,.608.242.681.681,0,0,1,.175.524l-.309,4.8c-.03.47-.41,3.465-.545,4.5-.109.839-.252,1.648-.426,2.405a20.167,20.167,0,0,1-.677,2.326,16.517,16.517,0,0,1-.976,2.2,14.4,14.4,0,0,1-1.324,2.039,12.193,12.193,0,0,1-4.033,3.331,14.06,14.06,0,0,1-3.526,1.87,12.312,12.312,0,0,1-2.25.57A14.937,14.937,0,0,1,30.807,36.632ZM33.94,15.048a17.039,17.039,0,0,0-4.694.756c-1.332.382-2.65.876-3.925,1.353-1.37.513-2.785,1.043-4.221,1.436a23.286,23.286,0,0,1-2.919.633c.154.181.309.382.474.614a32.374,32.374,0,0,0,4.4,2.087c.217.081.43.16.646.235.329-.092.671-.2,1.045-.344.65-.308,1.288-.693,1.905-1.065A17.033,17.033,0,0,1,29,19.5a10.346,10.346,0,0,1,1.955-.57,10.955,10.955,0,0,1,2.018-.186,11.63,11.63,0,0,1,5.193,1.236l.338.127c.43.161.874.328,1.318.473a11.018,11.018,0,0,0,1.087.3,10.045,10.045,0,0,0,1.858-3.021,6.22,6.22,0,0,1-2.078-.564c-.516-.223-1.019-.5-1.506-.762a14.177,14.177,0,0,0-1.992-.954,9,9,0,0,0-1.611-.407A10.571,10.571,0,0,0,33.94,15.048Z" transform="translate(-0.16 -2.717)"/>
        </g>
        <g id="accessories_Glasses_2" data-name="accessories/Glasses 2" transform="translate(0.207 7.653)">
          <path id="_Ink-5" data-name="ðŸ– Ink" d="M29.619,18.82h0a10.036,10.036,0,0,1-5.344-1.575,7.075,7.075,0,0,1-2.213-2.27,6.535,6.535,0,0,1-.881-2.642,8.61,8.61,0,0,1,.29-3.216,2.915,2.915,0,0,1-.851.112,4.155,4.155,0,0,1-1.241-.188,1.779,1.779,0,0,1-.895-.554C16.749,8.338,15,8.124,13.3,7.916a77.854,77.854,0,0,0-9.426-.767c-.754,0-1.5.022-2.2.066a.5.5,0,0,0-.448.3,1.3,1.3,0,0,0-.026.526,1.3,1.3,0,0,1-.025.524.491.491,0,0,1-.443.3.765.765,0,0,1-.718-.729A1.943,1.943,0,0,1,.2,7.085a1.348,1.348,0,0,1,.665-.715,6.492,6.492,0,0,1,2.792-.347,63.335,63.335,0,0,1,7.25.528,61.683,61.683,0,0,1,7.654,1.385,2.7,2.7,0,0,1,1.51-.362A10.986,10.986,0,0,1,21.5,7.7c.153.02.3.04.434.055a9.587,9.587,0,0,1,1.2-2.106,11.819,11.819,0,0,1,1.847-1.967,9.472,9.472,0,0,1,2.3-1.454,6.39,6.39,0,0,1,2.556-.568,5.329,5.329,0,0,1,.859.069,11.837,11.837,0,0,1,2.487.393,7.776,7.776,0,0,1,2.168.962,6.6,6.6,0,0,1,1.738,1.66,8.337,8.337,0,0,1,1.2,2.487,6.141,6.141,0,0,1,2.044-1.193,7.248,7.248,0,0,1,2.418-.424,5.341,5.341,0,0,1,2.731.685,10.23,10.23,0,0,1,2.379-3.373A9.468,9.468,0,0,1,51.429.846,4.325,4.325,0,0,1,53.963,0a4.69,4.69,0,0,1,1.971.456A6.684,6.684,0,0,1,57.7,1.668a8.545,8.545,0,0,1,1.411,1.737,8.417,8.417,0,0,1,.917,2.029,1.935,1.935,0,0,1,.838-.367,4.44,4.44,0,0,1,.906-.091.85.85,0,0,1,.5.268.572.572,0,0,1,.139.426c-.029.306-.323.614-.914.614a3.075,3.075,0,0,1-1.329-.375,11.4,11.4,0,0,1,.212,4.735,7.845,7.845,0,0,1-1.546,3.466,7.755,7.755,0,0,1-1.4,1.369,8.384,8.384,0,0,1-1.66.979,9.214,9.214,0,0,1-3.721.785h0a8.883,8.883,0,0,1-1.734-.169,8.018,8.018,0,0,1-1.633-.508,7.035,7.035,0,0,1-1.453-.849,6.34,6.34,0,0,1-1.195-1.189,6.558,6.558,0,0,1-1.262-3.064,10.343,10.343,0,0,1,.341-4.214,12.783,12.783,0,0,0-2.973-.377,8.277,8.277,0,0,0-3.72.819,8.541,8.541,0,0,1,.316,2.035,8.331,8.331,0,0,1-.171,1.962,8.549,8.549,0,0,1-.606,1.833,8.916,8.916,0,0,1-.99,1.649,9.219,9.219,0,0,1-7.353,3.65ZM30.644,2.887h0a11.534,11.534,0,0,0-4.028.8,10.2,10.2,0,0,0-3.269,3.714,9.433,9.433,0,0,0-.852,2.308,7.221,7.221,0,0,0-.148,2.343,5.46,5.46,0,0,0,1.116,2.809,6.692,6.692,0,0,0,2.9,2.062,8.31,8.31,0,0,0,1.558.46,8.548,8.548,0,0,0,1.605.152,8.418,8.418,0,0,0,3.532-.772,7.71,7.71,0,0,0,1.546-.954,7.336,7.336,0,0,0,1.289-1.322A7.787,7.787,0,0,0,37.454,10.5a7.675,7.675,0,0,0-.082-2.069,7.18,7.18,0,0,0-.63-1.929,6.578,6.578,0,0,0-.969-1.446,6.238,6.238,0,0,0-1.348-1.145,6.488,6.488,0,0,0-1.714-.754,7.7,7.7,0,0,0-2.067-.271ZM53.551,1.125a.089.089,0,0,0-.04.008,7.8,7.8,0,0,0-1.52.393c-.269.089-.523.173-.75.23a9.46,9.46,0,0,0-3.908,3.506,9.082,9.082,0,0,0-1.548,4.952,6.085,6.085,0,0,0,.228,1.586,5.278,5.278,0,0,0,.667,1.454,6.112,6.112,0,0,0,2.833,2.232,6.881,6.881,0,0,0,1.336.4,7.34,7.34,0,0,0,1.391.132,7.483,7.483,0,0,0,2.733-.518,6.856,6.856,0,0,0,1.232-.638,6.3,6.3,0,0,0,1.07-.883A6.012,6.012,0,0,0,58.5,12.214a8.144,8.144,0,0,0,.649-2.171,9.8,9.8,0,0,0-.4-4.643,7.975,7.975,0,0,0-.736-1.574,6.392,6.392,0,0,0-1.053-1.308A5.332,5.332,0,0,0,55.6,1.576,5.249,5.249,0,0,0,53.92,1.1a.381.381,0,0,1-.177.042.682.682,0,0,1-.108-.01l-.012,0A.489.489,0,0,0,53.551,1.125ZM21.817,8.043h0l-.08.036h0l-.021.009.009,0,.009,0a.2.2,0,0,1,.035.023l.016.011.019-.049v0l.014-.036Z" transform="translate(2.238 1.279)"/>
        </g>
      </g>
    </g>
  </g>
</svg>
